<svg xmlns="http://www.w3.org/2000/svg" height="512" width="512"  xmlns:v="https://vecta.io/nano"><path d="M70.369 479.411c42.965 42.965 113.089 43.747 155.813.543 20.188-20.414 30.681-46.809 31.483-73.441.594-19.728 12.483-37.429 30.433-45.636a73.08 73.08 0 0 0 20.783-14.304c29.27-28.687 28.683-76.089-.297-105.069l-38.088-38.088c-28.98-28.98-76.382-29.567-105.069-.297a73.04 73.04 0 0 0-14.304 20.782c-8.207 17.949-25.909 29.839-45.636 30.433-26.633.802-53.027 11.295-73.441 31.483-43.204 42.724-42.422 112.848.543 155.813z" fill="#fac574"/><circle cx="180.639" cy="331.36" fill="#685e67" r="41.822"/><path d="m210.215 360.934c-16.332 16.332-42.818 16.332-59.15 0-12.037-12.038-15.202-29.58-9.494-44.517 2.035 5.332 5.2 10.328 9.494 14.632 16.332 16.332 42.818 16.332 59.15 0 4.304-4.304 7.469-9.3 9.504-14.632 5.698 14.937 2.533 32.479-9.504 44.517z" fill="#554e55"/><path d="M308.876 346.576c-6.227 6.105-13.269 10.867-20.778 14.297-17.949 8.212-29.834 25.917-30.435 45.637-.804 26.639-11.295 53.034-31.483 73.446-42.727 43.205-112.845 42.421-155.806-.539l-22.63-22.63c42.961 42.961 113.09 43.744 155.806.539 20.188-20.412 30.689-46.807 31.483-73.436.6-19.73 12.485-37.435 30.435-45.637a73.14 73.14 0 0 0 20.788-14.307c29.265-28.684 28.674-76.092-.305-105.071l22.63 22.63c28.979 28.98 29.569 76.377.295 105.071z" fill="#e8b66b"/><path d="M251.016 294.083l182.669-189.561-26.208-26.208-189.561 182.669a5.09 5.09 0 0 0-.067 7.261l25.907 25.906a5.09 5.09 0 0 0 7.26-.067z" fill="#c76d3d"/><path d="M251.019 294.079c-1.979 2.051-5.252 2.086-7.267.072l-18.218-18.218c2.015 2.015 5.296 1.986 7.267-.072L415.463 86.305l18.218 18.218z" fill="#aa5e33"/><path d="M504.388 80.838c-1.947 0-3.896-.743-5.383-2.229L433.39 12.993c-2.972-2.972-2.972-7.792 0-10.764s7.792-2.972 10.765 0l65.616 65.615c2.972 2.972 2.972 7.792 0 10.764a7.59 7.59 0 0 1-5.383 2.23zm-20.437 16.101a7.59 7.59 0 0 1-5.383-2.229l-61.28-61.28c-2.972-2.972-2.972-7.792 0-10.764s7.793-2.972 10.765 0l61.28 61.28c2.972 2.972 2.972 7.792 0 10.764a7.59 7.59 0 0 1-5.382 2.229zm-21.521 15.018a7.59 7.59 0 0 1-5.383-2.229l-54.776-54.777c-2.972-2.972-2.972-7.792 0-10.764s7.793-2.972 10.765 0l54.776 54.777c2.972 2.972 2.972 7.792 0 10.764a7.59 7.59 0 0 1-5.382 2.229z" fill="#685e67"/><path d="M509.77 67.845l-25.519-25.52-10.721 10.808 25.475 25.475a7.59 7.59 0 0 0 10.765 0c2.972-2.972 2.972-7.791 0-10.763zm-43.737-7.199L455.28 71.422l23.288 23.288c1.487 1.487 3.434 2.229 5.383 2.229a7.59 7.59 0 0 0 5.382-2.229c2.972-2.972 2.972-7.792 0-10.764zm-18.249 18.288l-10.74 10.79 20.003 20.003c1.487 1.487 3.434 2.229 5.383 2.229a7.59 7.59 0 0 0 5.383-2.229c2.972-2.972 2.972-7.792 0-10.764z" fill="#554e55"/><path d="m429.941 107.047-24.99-24.99c-2.088-2.088-2.289-5.406-.47-7.731l47.174-60.276c4.462-5.701 12.906-6.214 18.024-1.095l29.362 29.362c5.119 5.119 4.606 13.563-1.095 18.024l-60.276 47.174c-2.323 1.822-5.641 1.62-7.729-.468z" fill="#fac574"/><path d="M503.474 56.014l-65.806 51.503a5.83 5.83 0 0 1-7.72-.468l-20.297-20.297a5.84 5.84 0 0 0 7.728.475l65.807-51.503c2.756-2.166 3.008-6.26.532-8.735l20.29 20.29c2.48 2.482 2.229 6.576-.534 8.735z" fill="#e8b66b"/><path d="M139.428 416.615c-1.947 0-3.896-.743-5.383-2.229l-36.433-36.433c-2.972-2.972-2.972-7.792 0-10.764s7.792-2.972 10.765 0l36.433 36.433c2.972 2.972 2.972 7.792 0 10.764-1.486 1.486-3.434 2.229-5.382 2.229zm-20.653 20.654c-1.947 0-3.896-.743-5.383-2.229l-36.433-36.433c-2.972-2.972-2.972-7.792 0-10.764s7.792-2.972 10.765 0l36.433 36.433c2.972 2.972 2.972 7.792 0 10.764-1.486 1.485-3.435 2.229-5.382 2.229z" fill="#fef0dc"/><path d="M450.905 68.707a7.59 7.59 0 0 1-5.382-2.229c-2.973-2.973-2.973-7.792-.001-10.765l12.433-12.434c2.973-2.972 7.793-2.973 10.764 0s2.973 7.792.001 10.765l-12.433 12.434a7.59 7.59 0 0 1-5.382 2.229z" fill="#c76d3d"/><path d="M327.549 220.039a7.59 7.59 0 0 1-5.383-2.229l-27.976-27.977c-2.972-2.973-2.972-7.792.001-10.764s7.791-2.972 10.764 0l27.976 27.977c2.972 2.973 2.972 7.792-.001 10.764-1.485 1.486-3.433 2.229-5.381 2.229zm26.86-26.86c-1.947 0-3.896-.743-5.383-2.229l-27.977-27.977c-2.972-2.972-2.972-7.792 0-10.764s7.792-2.972 10.765 0l27.977 27.977c2.972 2.972 2.972 7.792 0 10.764-1.486 1.486-3.434 2.229-5.382 2.229zm26.86-26.86a7.59 7.59 0 0 1-5.383-2.229l-27.976-27.977c-2.972-2.972-2.972-7.792 0-10.764s7.793-2.973 10.765 0l27.976 27.977c2.972 2.972 2.972 7.792 0 10.764a7.59 7.59 0 0 1-5.382 2.229zm21.236-25.554c-1.947 0-3.896-.743-5.383-2.229l-23.66-23.66c-2.972-2.972-2.972-7.792 0-10.764s7.792-2.972 10.765 0l23.66 23.66c2.972 2.972 2.972 7.792 0 10.764-1.486 1.486-3.434 2.229-5.382 2.229zM301.507 248.202c-1.947 0-3.896-.743-5.383-2.229l-30.136-30.135c-2.972-2.972-2.972-7.792 0-10.764s7.792-2.972 10.765 0l30.136 30.135c2.972 2.972 2.972 7.792 0 10.764-1.486 1.486-3.434 2.229-5.382 2.229zm-27.103 27.103a7.59 7.59 0 0 1-5.383-2.229l-30.135-30.135c-2.972-2.972-2.972-7.792 0-10.764s7.793-2.973 10.765 0l30.135 30.135c2.972 2.972 2.972 7.792 0 10.764a7.59 7.59 0 0 1-5.382 2.229z" fill="#8e4d29"/></svg>